# xmcd
#
# Track frame offsets:
#	150
#	22911
#	39853
#	55827
#	72020
#	92375
#	113239
#	130591
#	150623
#	170428
#	187719
#	199800
#	218887
#	235805
#	250205
#	263857
#	281756
#	299964
#
# Disc length: 4427 seconds
#
# Revision: 1
# Processed by: cddbd v1.5.2PL0 Copyright (c) Steve Scherf et al.
# Submitted via: audiograbber 1.83.01
#
DISCID=f9114912
DTITLE=Clarke,Mick - Ramdango/Crazy Blues/Shake it up! [CD2]
DYEAR=2016
DGENRE=Blues
TTITLE0=Smoked ham blues (from "Crazy Blues")
TTITLE1=Steady road (from "Crazy Blues")
TTITLE2=Fuzz (from "Crazy Blues")
TTITLE3=Mr W's holiday (from "Crazy Blues")
TTITLE4=Crazy Blues (from "Crazy Blues")
TTITLE5=Some days (from "Shake it up!")
TTITLE6=Eat yo words (from "Shake it up!")
TTITLE7=Blues start walkin' (from "Shake it up!")
TTITLE8=No good (from "Shake it up!")
TTITLE9=Danger zone (from "Shake it up!")
TTITLE10=Shake it up (from "Shake it up!")
TTITLE11=Begging bowl (from "Shake it up!")
TTITLE12=Cymbaline (from "Shake it up!")
TTITLE13=Farmyard Blues (from "Shake it up!")
TTITLE14=Hymn to the water of life (from "Shake it up!")
TTITLE15=Every confidence (from "Shake it up!")
TTITLE16=Pond snake (from "Shake it up!")
TTITLE17=Easy Blues (from "Shake it up!")
EXTD=
EXTT0=
EXTT1=
EXTT2=
EXTT3=
EXTT4=
EXTT5=
EXTT6=
EXTT7=
EXTT8=
EXTT9=
EXTT10=
EXTT11=
EXTT12=
EXTT13=
EXTT14=
EXTT15=
EXTT16=
EXTT17=
PLAYORDER=
